<?xml version="1.0" encoding="utf-8"?>
<!-- Generator: Adobe Illustrator 25.0.0, SVG Export Plug-In . SVG Version: 6.00 Build 0)  -->
<svg version="1.1" id="Layer_1" xmlns="http://www.w3.org/2000/svg" xmlns:xlink="http://www.w3.org/1999/xlink" x="0px" y="0px"
	 viewBox="0 0 531 141" style="enable-background:new 0 0 531 141;" xml:space="preserve">
<style type="text/css">
	.st0{fill:url(#SVGID_1_);}
	.st1{fill:url(#SVGID_2_);}
	.st2{fill:#231F20;}
	.st3{fill:#0D0F24;}
	.st4{fill:#EE3F2C;}
</style>
<g>
	<g>
		<g>
			<linearGradient id="SVGID_1_" gradientUnits="userSpaceOnUse" x1="22.2148" y1="87.7832" x2="77.5927" y2="87.7832">
				<stop  offset="0" style="stop-color:#EE3B33"/>
				<stop  offset="1" style="stop-color:#F37D20"/>
			</linearGradient>
			<path class="st0" d="M27.49,98.73V71.57h-5.27V104h55.38v-5.27H27.49z"/>
		</g>
	</g>
	<linearGradient id="SVGID_2_" gradientUnits="userSpaceOnUse" x1="-6.1023" y1="9.2608" x2="134.2289" y2="59.7066">
		<stop  offset="0" style="stop-color:#EE3B33"/>
		<stop  offset="1" style="stop-color:#F37D20"/>
	</linearGradient>
	<path class="st1" d="M137.61,65.34c-4.85,2.22-10.6,0.05-12.82-4.8c-1.63-3.64-0.9-7.7,1.58-10.44l-7.07-15.45H91.94v12.82
		c3.38,1.48,5.75,4.85,5.75,8.81c0,5.38-4.32,9.7-9.7,9.7c-5.33,0-9.65-4.32-9.65-9.7c0-3.96,2.37-7.33,5.75-8.81V34.65H56.07v12.82
		c3.38,1.48,5.75,4.85,5.75,8.81c0,5.38-4.32,9.7-9.7,9.7c-5.33,0-9.65-4.32-9.65-9.7c0-3.96,2.37-7.33,5.75-8.81V34.65H29.55
		L22.48,50.1c2.48,2.74,3.22,6.8,1.58,10.44c-2.22,4.85-7.96,7.01-12.76,4.8c-4.9-2.22-7.07-7.96-4.85-12.87
		c1.69-3.59,5.22-5.64,8.91-5.59l6.91-15.14V10.26c0-2.87,2.33-5.2,5.2-5.2h92.54c2.87,0,5.2,2.33,5.2,5.2v18.48l8.28,18.14
		c3.69-0.05,7.28,2,8.91,5.59C144.63,57.38,142.46,63.13,137.61,65.34z"/>
	<g>
		<path class="st2" d="M124.25,84.39H96.83l-5.33,23.94h-7.49l4.75,12.34h42.56L124.25,84.39z M110.01,109.13
			c-5.43,0-9.81-5.91-9.81-13.19h2c0,5.8,3.53,10.44,7.81,10.44c4.32,0,7.81-4.64,7.81-10.44h2.06
			C119.87,103.22,115.44,109.13,110.01,109.13z"/>
		<g>
			<path class="st2" d="M110.04,66.21c-4.85,0-8.78,7.12-8.78,15.93h2.91c0-5.91,2.62-10.65,5.87-10.65c3.23,0,5.87,4.75,5.87,10.65
				h2.91C118.82,73.33,114.86,66.21,110.04,66.21z"/>
		</g>
	</g>
	<g>
		<path class="st3" d="M193.3,85.63v15.69c-4.94,2.29-9.83,3.43-14.66,3.43c-7.44,0-14.34-2.61-20.71-7.84
			c-3.98-3.25-6.85-6.71-8.6-10.4c-1.75-3.68-2.63-8.08-2.63-13.21c0-8.38,3.15-15.52,9.44-21.44c6.29-5.91,13.82-8.87,22.59-8.87
			c8.98,0,16.68,2.91,23.11,8.72c6.43,5.81,9.64,12.94,9.64,21.36v29.47h-14.02V72.68c0-4.72-1.87-8.69-5.62-11.92
			c-3.74-3.22-8.17-4.84-13.27-4.84s-9.43,1.7-12.99,5.1c-3.56,3.4-5.34,7.54-5.34,12.41c0,5.03,1.79,9.33,5.38,12.91
			c3.59,3.58,7.98,5.37,13.19,5.37c3.13,0,5.83-0.47,8.09-1.41C189.14,89.37,191.28,87.81,193.3,85.63z"/>
		<path class="st3" d="M220.63,102.69V66.3c0-6.52,2.35-12.12,7.05-16.78s10.42-7,17.17-7c3.98,0,7.37,0.46,10.16,1.37
			c2.79,0.91,5.59,2.59,8.41,5.03c2.66-2.28,5.35-3.92,8.09-4.91c2.74-0.99,5.94-1.48,9.6-1.48c6.8,0,12.67,2.1,17.61,6.31
			c4.94,4.21,7.41,9.46,7.41,15.75v38.11h-14.58V65.72c0-2.81-1.05-5.19-3.15-7.16c-2.1-1.96-4.61-2.95-7.53-2.95
			c-2.76,0-5.1,0.97-7.01,2.92c-1.91,1.95-2.87,4.27-2.87,6.99v37.16h-14.82V65.72c0-2.86-1.06-5.25-3.19-7.19
			c-2.12-1.94-4.7-2.91-7.73-2.91c-2.82,0-5.19,0.98-7.13,2.94c-1.94,1.96-2.91,4.32-2.91,7.07v37.13L220.63,102.69z"/>
		<path class="st3" d="M329.3,102.69l-14.9-0.08V69.41c0-5.08,0.97-9.47,2.91-13.18c1.94-3.71,5.03-6.93,9.28-9.67
			c2.6-1.68,5.05-2.88,7.33-3.62c2.28-0.74,4.78-1.1,7.49-1.1c0.69,0,1.51,0.04,2.47,0.11s2.04,0.22,3.27,0.42v13.48
			c-1.33-0.35-2.71-0.53-4.14-0.53c-2.76,0-5.42,0.89-7.97,2.67c-1.86,1.27-3.28,2.72-4.26,4.34c-0.98,1.63-1.47,3.5-1.47,5.64
			V102.69z"/>
		<path class="st3" d="M354.79,43.28h13.94v34.06c0,3.24,1.41,5.93,4.22,8.06c2.81,2.13,6.08,3.19,9.8,3.19c3.67,0,6.86-1,9.6-3.01
			c2.74-2.01,4.1-4.61,4.1-7.81v-34.5h14.58v33.89c0,6.96-3.16,13.02-9.48,18.2c-5.9,4.87-12.24,7.31-19.04,7.31
			c-7.7,0-14.25-2.42-19.64-7.26c-5.39-4.84-8.09-10.79-8.09-17.84V43.28z"/>
		<path class="st3" d="M418.61,102.84V89.57c2.02-0.36,3.73-0.93,5.14-1.72c1.41-0.79,2.8-1.92,4.18-3.39
			c2.18-2.24,3.35-4.97,3.51-8.2c0.16-3.23,0.29-5.94,0.4-8.12c0.37-3.56,0.77-6.1,1.19-7.63c0.64-2.29,1.73-4.55,3.27-6.79
			c2.55-3.66,5.34-6.35,8.37-8.08c3.24-1.88,7.04-2.82,11.39-2.82V56.4c-3.4,0.71-6.19,2.39-8.37,5.03
			c-1.17,1.37-1.91,2.77-2.23,4.19c-0.32,1.42-0.48,3.23-0.48,5.41c0,0.61,0,1.17,0,1.68c0,0.51,0,0.94,0,1.3
			c0,4.68-0.37,8.34-1.12,10.98c-0.75,2.64-2.34,5.41-4.78,8.31c-2.82,3.36-5.82,5.78-9,7.28
			C426.9,102.09,423.07,102.84,418.61,102.84z"/>
		<path class="st3" d="M471.99,42.52c-2.55,0-4.54-0.79-5.97-2.36c-1.43-1.57-2.15-3.43-2.15-5.56c0-2.08,0.7-3.86,2.11-5.33
			c1.41-1.47,3.41-2.21,6.01-2.21c2.34,0,4.22,0.81,5.66,2.44c1.27,1.47,1.91,3.25,1.91,5.33c0,2.03-0.68,3.82-2.03,5.37
			C476.17,41.75,474.33,42.52,471.99,42.52z M465.06,46.25h13.54v56.28h-13.54V46.25z"/>
	</g>
	<g>
		<g>
			<path class="st4" d="M483.7,126.99c0.84,3.71,3.31,5.9,7.9,5.9c5.11,0,7.06-2.55,7.06-5.58c0-3.15-1.4-5.11-7.54-6.62
				c-5.9-1.48-8.46-3.39-8.46-7.42c0-3.67,2.67-7.1,8.66-7.1c6.14,0,8.74,3.75,9.09,7.14h-2.23c-0.64-2.99-2.59-5.15-6.98-5.15
				c-4.03,0-6.22,1.88-6.22,4.99c0,3.07,1.83,4.27,6.98,5.54c7.86,1.95,9.01,5.11,9.01,8.46c0,4.11-2.99,7.66-9.45,7.66
				c-6.98,0-9.53-4.07-10.05-7.82H483.7z"/>
			<path class="st4" d="M507.07,106.57h9.73c5.34,0,8.22,2.83,8.22,6.86c0,3.31-1.99,5.46-4.31,6.1c1.99,0.56,5.3,2.51,5.3,6.9
				c0,5.58-4.19,8.06-9.05,8.06h-9.89V106.57z M516.08,118.58c4.83,0,6.66-1.79,6.66-5.03c0-2.75-1.91-4.99-5.82-4.99h-7.74v10.01
				H516.08z M509.18,132.5h7.86c3.67,0,6.74-1.83,6.74-5.94c0-3.55-2.27-5.98-7.9-5.98h-6.7V132.5z"/>
		</g>
	</g>
</g>
</svg>
